<svg width="103" height="31" viewBox="0 0 103 31" fill="none" xmlns="http://www.w3.org/2000/svg">
<path d="M10 15C10 13.3431 11.3431 12 13 12H25.5C25.9659 12 26.1989 12 26.3827 12.0761C26.6277 12.1776 26.8224 12.3723 26.9239 12.6173C27 12.8011 27 13.0341 27 13.5C27 14.8978 27 15.5967 26.7716 16.1481C26.4672 16.8831 25.8831 17.4672 25.1481 17.7716C24.5967 18 23.8978 18 22.5 18H13C11.3431 18 10 16.6569 10 15Z" fill="#23367C"/>
<path d="M4.15289 22C4.15289 21.4477 4.60061 21 5.15289 21H23.9938C25.6506 21 26.9938 22.3431 26.9938 24V24.5C26.9938 26.433 25.4268 28 23.4938 28H5.15289C4.60061 28 4.15289 27.5523 4.15289 27V22Z" fill="#23367C"/>
<path d="M21.7262 16.7705C20.6216 16.7675 19.7288 15.8697 19.732 14.7651L19.7635 3.99998C19.7667 2.89542 20.6648 2.00242 21.7693 2.00541L23.5356 2.0102C25.4489 2.01539 26.9954 3.57067 26.9899 5.48402L26.9627 14.7847C26.9594 15.8893 26.0614 16.7823 24.9568 16.7793L21.7262 16.7705Z" fill="#23367C"/>
<rect x="23.8791" y="9" width="20.7644" height="7" rx="2" transform="rotate(-180 23.8791 9)" fill="#23367C"/>
<path d="M3.5 28C1.56701 28 0 26.433 0 24.5L0 5.5C0 3.567 1.567 2 3.5 2H5.26755C6.37212 2 7.26755 2.89543 7.26755 4L7.26755 26C7.26755 27.1046 6.37212 28 5.26755 28H3.5Z" fill="#23367C"/>
<path d="M32.024 6.88V18H30.2V6.88H32.024ZM38.8668 9.04C39.5601 9.04 40.1788 9.184 40.7228 9.472C41.2774 9.76 41.7094 10.1867 42.0188 10.752C42.3281 11.3173 42.4828 12 42.4828 12.8V18H40.6748V13.072C40.6748 12.2827 40.4774 11.68 40.0828 11.264C39.6881 10.8373 39.1494 10.624 38.4668 10.624C37.7841 10.624 37.2401 10.8373 36.8348 11.264C36.4401 11.68 36.2428 12.2827 36.2428 13.072V18H34.4188V9.184H36.2428V10.192C36.5414 9.82933 36.9201 9.54667 37.3788 9.344C37.8481 9.14133 38.3441 9.04 38.8668 9.04ZM48.2174 16.368L50.7134 9.184H52.6494L49.2894 18H47.1134L43.7694 9.184H45.7214L48.2174 16.368ZM57.8521 18.144C57.0201 18.144 56.2681 17.9573 55.5961 17.584C54.9241 17.2 54.3961 16.6667 54.0121 15.984C53.6281 15.2907 53.4361 14.4907 53.4361 13.584C53.4361 12.688 53.6335 11.8933 54.0281 11.2C54.4228 10.5067 54.9615 9.97333 55.6441 9.6C56.3268 9.22667 57.0895 9.04 57.9321 9.04C58.7748 9.04 59.5375 9.22667 60.2201 9.6C60.9028 9.97333 61.4415 10.5067 61.8361 11.2C62.2308 11.8933 62.4281 12.688 62.4281 13.584C62.4281 14.48 62.2255 15.2747 61.8201 15.968C61.4148 16.6613 60.8601 17.2 60.1561 17.584C59.4628 17.9573 58.6948 18.144 57.8521 18.144ZM57.8521 16.56C58.3215 16.56 58.7588 16.448 59.1641 16.224C59.5801 16 59.9161 15.664 60.1721 15.216C60.4281 14.768 60.5561 14.224 60.5561 13.584C60.5561 12.944 60.4335 12.4053 60.1881 11.968C59.9428 11.52 59.6175 11.184 59.2121 10.96C58.8068 10.736 58.3695 10.624 57.9001 10.624C57.4308 10.624 56.9935 10.736 56.5881 10.96C56.1935 11.184 55.8788 11.52 55.6441 11.968C55.4095 12.4053 55.2921 12.944 55.2921 13.584C55.2921 14.5333 55.5321 15.2693 56.0121 15.792C56.5028 16.304 57.1161 16.56 57.8521 16.56ZM65.1593 8.016C64.8286 8.016 64.5513 7.904 64.3273 7.68C64.1033 7.456 63.9913 7.17867 63.9913 6.848C63.9913 6.51733 64.1033 6.24 64.3273 6.016C64.5513 5.792 64.8286 5.68 65.1593 5.68C65.4793 5.68 65.7513 5.792 65.9753 6.016C66.1993 6.24 66.3113 6.51733 66.3113 6.848C66.3113 7.17867 66.1993 7.456 65.9753 7.68C65.7513 7.904 65.4793 8.016 65.1593 8.016ZM66.0553 9.184V18H64.2313V9.184H66.0553ZM67.842 13.584C67.842 12.6773 68.0233 11.8827 68.386 11.2C68.7593 10.5067 69.2713 9.97333 69.922 9.6C70.5727 9.22667 71.3193 9.04 72.162 9.04C73.2287 9.04 74.1087 9.296 74.802 9.808C75.506 10.3093 75.9807 11.0293 76.226 11.968H74.258C74.098 11.5307 73.842 11.1893 73.49 10.944C73.138 10.6987 72.6953 10.576 72.162 10.576C71.4153 10.576 70.818 10.8427 70.37 11.376C69.9327 11.8987 69.714 12.6347 69.714 13.584C69.714 14.5333 69.9327 15.2747 70.37 15.808C70.818 16.3413 71.4153 16.608 72.162 16.608C73.218 16.608 73.9167 16.144 74.258 15.216H76.226C75.97 16.112 75.49 16.8267 74.786 17.36C74.082 17.8827 73.2073 18.144 72.162 18.144C71.3193 18.144 70.5727 17.9573 69.922 17.584C69.2713 17.2 68.7593 16.6667 68.386 15.984C68.0233 15.2907 67.842 14.4907 67.842 13.584ZM78.9718 8.016C78.6411 8.016 78.3638 7.904 78.1398 7.68C77.9158 7.456 77.8038 7.17867 77.8038 6.848C77.8038 6.51733 77.9158 6.24 78.1398 6.016C78.3638 5.792 78.6411 5.68 78.9718 5.68C79.2918 5.68 79.5638 5.792 79.7878 6.016C80.0118 6.24 80.1238 6.51733 80.1238 6.848C80.1238 7.17867 80.0118 7.456 79.7878 7.68C79.5638 7.904 79.2918 8.016 78.9718 8.016ZM79.8678 9.184V18H78.0438V9.184H79.8678ZM86.7105 9.04C87.4038 9.04 88.0225 9.184 88.5665 9.472C89.1212 9.76 89.5532 10.1867 89.8625 10.752C90.1718 11.3173 90.3265 12 90.3265 12.8V18H88.5185V13.072C88.5185 12.2827 88.3212 11.68 87.9265 11.264C87.5318 10.8373 86.9932 10.624 86.3105 10.624C85.6278 10.624 85.0838 10.8373 84.6785 11.264C84.2838 11.68 84.0865 12.2827 84.0865 13.072V18H82.2625V9.184H84.0865V10.192C84.3852 9.82933 84.7638 9.54667 85.2225 9.344C85.6918 9.14133 86.1878 9.04 86.7105 9.04ZM96.2051 9.04C96.8878 9.04 97.4905 9.17867 98.0131 9.456C98.5465 9.72267 98.9625 10.0587 99.2611 10.464V9.184H101.101V18.144C101.101 18.9547 100.93 19.6747 100.589 20.304C100.248 20.944 99.7518 21.4453 99.1011 21.808C98.4611 22.1707 97.6931 22.352 96.7971 22.352C95.6025 22.352 94.6105 22.0693 93.8211 21.504C93.0318 20.9493 92.5838 20.192 92.4771 19.232H94.2851C94.4238 19.6907 94.7171 20.0587 95.1651 20.336C95.6238 20.624 96.1678 20.768 96.7971 20.768C97.5331 20.768 98.1251 20.544 98.5731 20.096C99.0318 19.648 99.2611 18.9973 99.2611 18.144V16.672C98.9518 17.088 98.5305 17.44 97.9971 17.728C97.4745 18.0053 96.8771 18.144 96.2051 18.144C95.4371 18.144 94.7331 17.952 94.0931 17.568C93.4638 17.1733 92.9625 16.6293 92.5891 15.936C92.2265 15.232 92.0451 14.4373 92.0451 13.552C92.0451 12.6667 92.2265 11.8827 92.5891 11.2C92.9625 10.5173 93.4638 9.98933 94.0931 9.616C94.7331 9.232 95.4371 9.04 96.2051 9.04ZM99.2611 13.584C99.2611 12.976 99.1331 12.448 98.8771 12C98.6318 11.552 98.3065 11.2107 97.9011 10.976C97.4958 10.7413 97.0585 10.624 96.5891 10.624C96.1198 10.624 95.6825 10.7413 95.2771 10.976C94.8718 11.2 94.5411 11.536 94.2851 11.984C94.0398 12.4213 93.9171 12.944 93.9171 13.552C93.9171 14.16 94.0398 14.6933 94.2851 15.152C94.5411 15.6107 94.8718 15.9627 95.2771 16.208C95.6931 16.4427 96.1305 16.56 96.5891 16.56C97.0585 16.56 97.4958 16.4427 97.9011 16.208C98.3065 15.9733 98.6318 15.632 98.8771 15.184C99.1331 14.7253 99.2611 14.192 99.2611 13.584Z" fill="black"/>
<path d="M31.64 27.09C31.1733 27.09 30.7633 26.9933 30.41 26.8C30.0567 26.6067 29.78 26.3333 29.58 25.98C29.3867 25.6267 29.29 25.2233 29.29 24.77C29.29 24.15 29.4333 23.5833 29.72 23.07C30.0133 22.5567 30.4133 22.15 30.92 21.85C31.4333 21.55 32.0033 21.4 32.63 21.4C33.0967 21.4 33.51 21.5 33.87 21.7C34.23 21.8933 34.51 22.1667 34.71 22.52C34.9167 22.8667 35.02 23.27 35.02 23.73C35.02 24.35 34.87 24.9167 34.57 25.43C34.27 25.9433 33.8633 26.35 33.35 26.65C32.8367 26.9433 32.2667 27.09 31.64 27.09ZM31.78 26.13C32.16 26.13 32.5067 26.0233 32.82 25.81C33.14 25.59 33.39 25.3033 33.57 24.95C33.75 24.59 33.84 24.2067 33.84 23.8C33.84 23.34 33.71 22.9867 33.45 22.74C33.19 22.4867 32.8633 22.36 32.47 22.36C32.0833 22.36 31.7367 22.47 31.43 22.69C31.13 22.9033 30.8933 23.1933 30.72 23.56C30.5533 23.92 30.47 24.3067 30.47 24.72C30.47 25.1667 30.59 25.5133 30.83 25.76C31.0767 26.0067 31.3933 26.13 31.78 26.13ZM39.377 21.4C39.957 21.4 40.417 21.5567 40.757 21.87C41.1036 22.1767 41.277 22.62 41.277 23.2C41.277 23.3467 41.2603 23.53 41.227 23.75L40.647 27H39.517L40.067 23.92C40.0936 23.7333 40.107 23.6 40.107 23.52C40.107 23.1533 40.0036 22.8733 39.797 22.68C39.597 22.4867 39.317 22.39 38.957 22.39C38.5236 22.39 38.157 22.5233 37.857 22.79C37.5636 23.05 37.377 23.4267 37.297 23.92V23.89L36.747 27H35.607L36.577 21.49H37.717L37.607 22.13C37.8336 21.9033 38.1003 21.7267 38.407 21.6C38.7203 21.4667 39.0436 21.4 39.377 21.4ZM44.5511 19.6L43.2411 27H42.1011L43.4111 19.6H44.5511ZM46.4178 20.76C46.2378 20.76 46.0911 20.7033 45.9778 20.59C45.8645 20.4767 45.8078 20.3333 45.8078 20.16C45.8078 19.9267 45.8945 19.7267 46.0678 19.56C46.2478 19.3867 46.4511 19.3 46.6778 19.3C46.8578 19.3 47.0011 19.3567 47.1078 19.47C47.2211 19.5833 47.2778 19.7267 47.2778 19.9C47.2778 20.1333 47.1911 20.3367 47.0178 20.51C46.8445 20.6767 46.6445 20.76 46.4178 20.76ZM46.8478 21.49L45.8778 27H44.7378L45.7078 21.49H46.8478ZM51.1445 21.4C51.7245 21.4 52.1845 21.5567 52.5245 21.87C52.8712 22.1767 53.0445 22.62 53.0445 23.2C53.0445 23.3467 53.0279 23.53 52.9945 23.75L52.4145 27H51.2845L51.8345 23.92C51.8612 23.7333 51.8745 23.6 51.8745 23.52C51.8745 23.1533 51.7712 22.8733 51.5645 22.68C51.3645 22.4867 51.0845 22.39 50.7245 22.39C50.2912 22.39 49.9245 22.5233 49.6245 22.79C49.3312 23.05 49.1445 23.4267 49.0645 23.92V23.89L48.5145 27H47.3745L48.3445 21.49H49.4845L49.3745 22.13C49.6012 21.9033 49.8679 21.7267 50.1745 21.6C50.4879 21.4667 50.8112 21.4 51.1445 21.4ZM57.2287 21.4C57.9153 21.4 58.462 21.5933 58.8687 21.98C59.282 22.3667 59.4887 22.8867 59.4887 23.54C59.4887 23.6933 59.472 23.8767 59.4387 24.09C59.412 24.2367 59.3653 24.4167 59.2987 24.63H55.0887C55.082 24.6767 55.0787 24.7467 55.0787 24.84C55.0787 25.2333 55.1987 25.5467 55.4387 25.78C55.6853 26.0133 56.0053 26.13 56.3987 26.13C57.0187 26.13 57.4953 25.8733 57.8287 25.36H59.0587C58.8053 25.8667 58.432 26.2833 57.9387 26.61C57.4453 26.93 56.8753 27.09 56.2287 27.09C55.7687 27.09 55.3653 27 55.0187 26.82C54.672 26.64 54.402 26.3833 54.2087 26.05C54.0153 25.71 53.9187 25.3133 53.9187 24.86C53.9187 24.6667 53.9387 24.46 53.9787 24.24C54.0787 23.6733 54.282 23.1767 54.5887 22.75C54.8953 22.3167 55.2753 21.9833 55.7287 21.75C56.1887 21.5167 56.6887 21.4 57.2287 21.4ZM58.2987 23.81C58.312 23.69 58.3187 23.6033 58.3187 23.55C58.3187 23.1833 58.1953 22.8933 57.9487 22.68C57.7087 22.4667 57.3953 22.36 57.0087 22.36C56.602 22.36 56.2353 22.49 55.9087 22.75C55.582 23.01 55.3587 23.3633 55.2387 23.81H58.2987Z" fill="#E28A52"/>
</svg>
